<?xml version="1.0" encoding="UTF-8" standalone="no"?>
<!-- Created with Inkscape (http://www.inkscape.org/) -->

<svg
   xmlns:dc="http://purl.org/dc/elements/1.1/"
   xmlns:cc="http://creativecommons.org/ns#"
   xmlns:rdf="http://www.w3.org/1999/02/22-rdf-syntax-ns#"
   xmlns:svg="http://www.w3.org/2000/svg"
   xmlns="http://www.w3.org/2000/svg"
   xmlns:xlink="http://www.w3.org/1999/xlink"
   xmlns:sodipodi="http://sodipodi.sourceforge.net/DTD/sodipodi-0.dtd"
   xmlns:inkscape="http://www.inkscape.org/namespaces/inkscape"
   id="svg2"
   version="1.1"
   inkscape:version="0.48.2 r9819"
   width="600"
   height="600"
   viewBox="0 0 600 600"
   sodipodi:docname="gear-animation-01.svg">
  <metadata
     id="metadata8">
    <rdf:RDF>
      <cc:Work
         rdf:about="">
        <dc:format>image/svg+xml</dc:format>
        <dc:type
           rdf:resource="http://purl.org/dc/dcmitype/StillImage" />
        <dc:title></dc:title>
      </cc:Work>
    </rdf:RDF>
  </metadata>
  <defs
     id="defs6" />
  <sodipodi:namedview
     pagecolor="#ffffff"
     bordercolor="#666666"
     borderopacity="1"
     objecttolerance="10"
     gridtolerance="10"
     guidetolerance="10"
     inkscape:pageopacity="0"
     inkscape:pageshadow="2"
     inkscape:window-width="1835"
     inkscape:window-height="789"
     id="namedview4"
     showgrid="false"
     borderlayer="true"
     inkscape:showpageshadow="false"
     inkscape:zoom="0.26070325"
     inkscape:cx="292.69138"
     inkscape:cy="435.48326"
     inkscape:window-x="221"
     inkscape:window-y="55"
     inkscape:window-maximized="0"
     inkscape:current-layer="svg2">
    <inkscape:grid
       type="xygrid"
       id="grid3777"
       empspacing="100"
       visible="true"
       enabled="true"
       snapvisiblegridlinesonly="true" />
  </sodipodi:namedview>
  <rect
     style="fill:#e6e6e6;fill-opacity:1;fill-rule:nonzero;stroke:#ff8484;stroke-width:5.65030575000000020;stroke-linecap:round;stroke-linejoin:round;stroke-miterlimit:4;stroke-opacity:1;stroke-dasharray:none;stroke-dashoffset:31.67028214999999800"
     id="rect3828"
     width="652.30072"
     height="660.80872"
     x="-26.436106"
     y="-26.714485" />
  <path
     inkscape:connector-curvature="0"
     style="fill:#7c4e1e;stroke:#000000;stroke-width:1.22497892000000010;fill-opacity:1"
     d="m 281.31108,393.45229 1.14003,0.0356 1.14801,0.14308 1.15293,0.2158 1.15575,0.27685 1.15802,0.33135 1.15904,0.38137 1.15924,0.42855 1.15862,0.47345 1.1574,0.51653 1.15536,0.55838 1.15251,0.59902 0.0268,1.29378 0.007,1.29398 -0.007,1.29399 -0.0268,1.29379 -1.15251,0.59901 -1.15536,0.55839 -1.1574,0.51654 -1.15862,0.47345 -1.15924,0.42855 -1.15904,0.38137 -1.15802,0.33135 -1.15575,0.27684 -1.15293,0.2158 -1.14801,0.14308 -1.14003,0.0356 -1.99243,-0.16048 -0.18681,2.00243 -0.23724,1.99694 -0.28767,1.99038 -0.33788,1.98242 1.96608,0.36077 1.09206,0.3293 1.07187,0.43549 1.05756,0.50693 1.04491,0.56657 1.03266,0.61962 1.02082,0.66843 1.00898,0.71396 0.99651,0.75725 0.98426,0.79847 0.97142,0.83829 0.95855,0.87689 -0.30911,1.25662 -0.32645,1.25232 -0.34341,1.24766 -0.36075,1.24273 -1.26826,0.28011 -1.26052,0.24031 -1.25171,0.19945 -1.24173,0.15742 -1.2307,0.11398 -1.21823,0.0683 -1.20416,0.0203 -1.18823,-0.0318 -1.16924,-0.0897 -1.14596,-0.15885 -1.11045,-0.26072 -1.883,-0.67067 -0.69864,1.88586 -0.74602,1.86747 -0.79296,1.84809 -0.83952,1.82746 1.80561,0.85728 0.96957,0.60086 0.92282,0.69783 0.89035,0.76336 0.8626,0.81789 0.83708,0.86584 0.81296,0.90976 0.78972,0.95078 0.76682,0.98937 0.74397,1.02593 0.72132,1.06123 0.69885,1.09494 -0.62373,1.13392 -0.63943,1.12515 -0.65475,1.11616 -0.67007,1.10716 -1.29766,-0.0576 -1.27969,-0.0944 -1.2605,-0.13128 -1.2403,-0.16924 -1.21804,-0.20845 -1.19456,-0.24929 -1.16841,-0.29195 -1.13944,-0.33831 -1.10637,-0.38934 -1.06573,-0.45017 -1.00508,-0.53919 -1.64536,-1.13515 -1.1627,1.64066 -1.20417,1.61084 -1.24418,1.57981 -1.28376,1.54798 1.52225,1.29541 0.78091,0.83135 0.71069,0.91303 0.66251,0.96771 0.62147,1.01308 0.58453,1.05305 0.54981,1.08922 0.51674,1.1227 0.48448,1.15413 0.45303,1.18374 0.42222,1.2117 0.39157,1.23846 -0.89587,0.93384 -0.90872,0.92138 -0.92138,0.90874 -0.93386,0.89587 -1.23844,-0.39158 -1.21171,-0.42222 -1.18375,-0.45303 -1.15413,-0.48448 -1.12268,-0.51675 -1.08922,-0.5498 -1.05308,-0.58452 -1.01305,-0.62148 -0.96774,-0.66251 -0.91302,-0.71069 -0.83135,-0.78091 -1.29541,-1.52224 -1.54796,1.28377 -1.57982,1.24416 -1.61084,1.20417 -1.64066,1.16271 1.13514,1.64534 0.5392,1.00509 0.45018,1.06573 0.38934,1.10636 0.33829,1.13945 0.29197,1.16842 0.24926,1.19456 0.20845,1.21803 0.16926,1.2403 0.13127,1.2605 0.0944,1.27969 0.0576,1.29768 -1.10719,0.67005 -1.11615,0.65474 -1.12516,0.63944 -1.13391,0.62373 -1.09492,-0.69886 -1.06124,-0.72129 -1.02592,-0.74399 -0.98938,-0.76683 -0.95079,-0.7897 -0.90974,-0.81298 -0.86587,-0.83707 -0.81788,-0.86259 -0.76336,-0.89036 -0.69783,-0.9228 -0.60085,-0.96958 -0.85728,-1.80562 -1.82747,0.83951 -1.84807,0.79298 -1.86749,0.74601 -1.88584,0.69864 0.67066,1.88301 0.26072,1.11044 0.15883,1.14596 0.0897,1.16925 0.0318,1.18822 -0.0203,1.20417 -0.0685,1.21824 -0.11397,1.23068 -0.15741,1.24173 -0.19947,1.25172 -0.2403,1.2605 -0.28011,1.26827 -1.24274,0.36075 -1.24765,0.34341 -1.25234,0.32646 -1.25661,0.30909 -0.87688,-0.95854 -0.83829,-0.97141 -0.79849,-0.98427 -0.75724,-0.99652 -0.71396,-1.00898 -0.66843,-1.0208 -0.61963,-1.03267 -0.56656,-1.04491 -0.50694,-1.05756 -0.43547,-1.07186 -0.32932,-1.09206 -0.36075,-1.9661 -1.98244,0.3379 -1.99038,0.28766 -1.99693,0.23723 -2.00241,0.18682 0.16046,1.99242 -0.0356,1.14006 -0.14307,1.14801 -0.2158,1.1529 -0.27685,1.15577 -0.33135,1.158 -0.38137,1.15905 -0.42855,1.15924 -0.47345,1.15861 -0.51653,1.15742 -0.55838,1.15535 -0.59902,1.1525 -1.29378,0.0268 -1.29398,0.007 -1.29399,-0.007 -1.29379,-0.0268 -0.59901,-1.1525 -0.55839,-1.15535 -0.51654,-1.15742 -0.47345,-1.15861 -0.42855,-1.15924 -0.38137,-1.15905 -0.33135,-1.158 -0.27684,-1.15577 -0.21581,-1.1529 -0.14307,-1.14801 -0.0356,-1.14006 0.16048,-1.99242 -2.00243,-0.18682 -1.99693,-0.23723 -1.99038,-0.28766 -1.98242,-0.3379 -0.36077,1.9661 -0.3293,1.09206 -0.43549,1.07186 -0.50693,1.05756 -0.56657,1.04491 -0.61962,1.03267 -0.66843,1.0208 -0.71396,1.00898 -0.75725,0.99652 -0.79847,0.98427 -0.83829,0.97141 -0.87689,0.95854 -1.25662,-0.30909 -1.25233,-0.32646 -1.24766,-0.34341 -1.24273,-0.36075 -0.28011,-1.26827 -0.24031,-1.2605 -0.19945,-1.25172 -0.15741,-1.24173 -0.11398,-1.23068 -0.0683,-1.21824 -0.0203,-1.20417 0.0318,-1.18822 0.0897,-1.16925 0.15885,-1.14596 0.26072,-1.11044 0.67067,-1.88301 -1.88586,-0.69864 -1.86747,-0.74601 -1.84809,-0.79298 -1.82745,-0.83951 -0.85729,1.80562 -0.60086,0.96958 -0.69783,0.9228 -0.76336,0.89036 -0.81789,0.86259 -0.86584,0.83707 -0.90976,0.81298 -0.95078,0.7897 -0.98937,0.76683 -1.02593,0.74399 -1.06123,0.72129 -1.09494,0.69886 -1.13392,-0.62373 -1.12515,-0.63944 -1.11616,-0.65474 -1.10715,-0.67005 0.0576,-1.29768 0.0944,-1.27969 0.13128,-1.2605 0.16925,-1.2403 0.20844,-1.21803 0.2493,-1.19456 0.29194,-1.16842 0.33831,-1.13945 0.38934,-1.10636 0.45017,-1.06573 0.5392,-1.00509 1.13515,-1.64534 -1.64067,-1.16271 -1.61084,-1.20417 -1.5798,-1.24416 -1.54798,-1.28377 -1.29541,1.52224 -0.83136,0.78091 -0.91302,0.71069 -0.96772,0.66251 -1.01308,0.62148 -1.05304,0.58452 -1.08923,0.5498 -1.12269,0.51675 -1.15413,0.48448 -1.18374,0.45303 -1.2117,0.42222 -1.23846,0.39158 -0.93384,-0.89587 -0.92138,-0.90874 -0.90874,-0.92138 -0.89587,-0.93384 0.39158,-1.23846 0.42222,-1.2117 0.45303,-1.18374 0.48448,-1.15413 0.51675,-1.1227 0.5498,-1.08922 0.58452,-1.05305 0.62148,-1.01308 0.66251,-0.96771 0.71069,-0.91303 0.78091,-0.83135 1.52224,-1.29541 -1.28377,-1.54798 -1.24416,-1.57981 -1.20417,-1.61084 -1.16271,-1.64066 -1.64534,1.13515 -1.00509,0.53919 -1.06573,0.45017 -1.10636,0.38934 -1.13945,0.33831 -1.16842,0.29195 -1.19456,0.24929 -1.21803,0.20845 -1.2403,0.16924 -1.2605,0.13128 -1.27969,0.0944 -1.29768,0.0576 -0.67005,-1.10716 -0.65474,-1.11616 -0.63944,-1.12515 -0.62373,-1.13392 0.69886,-1.09494 0.72129,-1.06123 0.74399,-1.02593 0.76683,-0.98937 0.7897,-0.95078 0.81298,-0.90976 0.83707,-0.86584 0.86259,-0.81789 0.89036,-0.76336 0.9228,-0.69783 0.96958,-0.60086 1.80562,-0.85728 -0.83951,-1.82746 -0.79298,-1.84809 -0.74601,-1.86747 -0.69864,-1.88586 -1.88301,0.67067 -1.11044,0.26072 -1.14596,0.15885 -1.16925,0.0897 -1.18822,0.0318 -1.20417,-0.0203 -1.21824,-0.0683 -1.23068,-0.11398 -1.24173,-0.15742 -1.25172,-0.19945 -1.2605,-0.24031 -1.26827,-0.28011 -0.36075,-1.24273 -0.34341,-1.24766 -0.32646,-1.25232 -0.30909,-1.25662 0.95854,-0.87689 0.97141,-0.83829 0.98427,-0.79847 0.99652,-0.75725 1.00898,-0.71396 1.0208,-0.66843 1.03267,-0.61962 1.04491,-0.56657 1.05756,-0.50693 1.07186,-0.43549 1.09206,-0.3293 1.9661,-0.36077 -0.3379,-1.98242 -0.28766,-1.99038 -0.23723,-1.99694 -0.18682,-2.00243 -1.99242,0.16048 -1.14006,-0.0356 -1.14801,-0.14308 -1.1529,-0.2158 -1.15577,-0.27684 -1.158,-0.33135 -1.15905,-0.38137 -1.15924,-0.42855 -1.15861,-0.47345 -1.15742,-0.51654 -1.15535,-0.55839 -1.1525,-0.59901 -0.0268,-1.29379 -0.007,-1.29399 0.007,-1.29398 0.0268,-1.29378 1.1525,-0.59902 1.15535,-0.55838 1.15742,-0.51653 1.15861,-0.47345 1.15924,-0.42855 1.15905,-0.38137 1.158,-0.33135 1.15577,-0.27685 1.1529,-0.2158 1.14801,-0.14308 1.14006,-0.0356 1.99242,0.16046 0.18682,-2.00241 0.23723,-1.99694 0.28766,-1.99038 0.3379,-1.98244 -1.9661,-0.36075 -1.09206,-0.32932 -1.07186,-0.43547 -1.05756,-0.50694 -1.04491,-0.56655 -1.03267,-0.61963 -1.0208,-0.66843 -1.00898,-0.71396 -0.99652,-0.75724 -0.98427,-0.79849 -0.97141,-0.83829 -0.95854,-0.87688 0.30909,-1.25662 0.32646,-1.25234 0.34341,-1.24765 0.36075,-1.24274 1.26827,-0.28011 1.2605,-0.2403 1.25172,-0.19947 1.24173,-0.15741 1.23068,-0.11397 1.21824,-0.0683 1.20417,-0.0203 1.18822,0.0318 1.16925,0.0897 1.14596,0.15883 1.11044,0.26071 1.88301,0.67067 0.69864,-1.88584 0.74601,-1.86749 0.79298,-1.84807 0.83951,-1.82747 -1.80562,-0.85728 -0.96958,-0.60085 -0.9228,-0.69783 -0.89036,-0.76336 -0.86259,-0.81789 -0.83707,-0.86586 -0.81298,-0.90974 -0.7897,-0.95079 -0.76683,-0.98938 -0.74399,-1.02591 -0.72129,-1.06124 -0.69886,-1.09493 0.62373,-1.13391 0.63944,-1.12516 0.65474,-1.11615 0.67005,-1.10719 1.29768,0.0576 1.27969,0.0944 1.2605,0.13127 1.2403,0.16925 1.21803,0.20845 1.19456,0.24927 1.16842,0.29196 1.13945,0.33829 1.10636,0.38935 1.06573,0.45018 1.00509,0.53919 1.64534,1.13515 1.16271,-1.64066 1.20417,-1.61084 1.24416,-1.57983 1.28377,-1.54795 -1.52224,-1.29542 -0.78091,-0.83134 -0.71069,-0.91302 -0.66251,-0.96775 -0.62148,-1.01304 -0.58452,-1.05309 -0.5498,-1.08921 -0.51675,-1.12268 -0.48448,-1.15413 -0.45303,-1.18375 -0.42222,-1.21171 -0.39158,-1.23844 0.89587,-0.93386 0.90874,-0.92138 0.92138,-0.90873 0.93384,-0.89587 1.23846,0.39158 1.2117,0.42222 1.18374,0.45303 1.15413,0.48448 1.12269,0.51673 1.08923,0.54982 1.05304,0.58452 1.01308,0.62148 0.96772,0.66251 0.91302,0.71069 0.83136,0.78091 1.29541,1.52225 1.54798,-1.28377 1.5798,-1.24417 1.61084,-1.20417 1.64067,-1.1627 -1.13515,-1.64535 -0.5392,-1.00509 -0.45017,-1.06572 -0.38934,-1.10638 -0.33831,-1.13943 -0.29194,-1.16841 -0.2493,-1.19457 -0.20844,-1.21803 -0.16925,-1.2403 -0.13128,-1.2605 -0.0944,-1.27969 -0.0576,-1.29766 1.10715,-0.67007 1.11616,-0.65476 1.12515,-0.63942 1.13392,-0.62373 1.09494,0.69885 1.06123,0.72131 1.02593,0.74397 0.98937,0.76682 0.95078,0.78971 0.90976,0.81298 0.86584,0.83708 0.81789,0.8626 0.76336,0.89035 0.69783,0.9228 0.60086,0.96958 0.85729,1.80561 1.82745,-0.83951 1.84809,-0.79298 1.86747,-0.74601 1.88586,-0.69864 -0.67067,-1.88301 -0.26072,-1.11044 -0.15885,-1.14596 -0.0897,-1.16925 -0.0318,-1.18822 0.0203,-1.20416 0.0683,-1.21825 0.11398,-1.23068 0.15741,-1.24173 0.19945,-1.25172 0.24031,-1.26051 0.28011,-1.26826 1.24273,-0.36075 1.24766,-0.34341 1.25233,-0.32646 1.25662,-0.30911 0.87689,0.95856 0.83829,0.97142 0.79847,0.98426 0.75725,0.99651 0.71396,1.00898 0.66843,1.02081 0.61962,1.03267 0.56657,1.04491 0.50693,1.05757 0.43549,1.07187 0.3293,1.09206 0.36077,1.96607 1.98242,-0.33789 1.99038,-0.28766 1.99693,-0.23725 2.00243,-0.1868 -0.16048,-1.99243 0.0356,-1.14005 0.14307,-1.14799 0.21581,-1.15293 0.27684,-1.15575 0.33135,-1.15802 0.38137,-1.15904 0.42855,-1.15924 0.47345,-1.15863 0.51654,-1.1574 0.55839,-1.15535 0.59901,-1.15251 1.29379,-0.0268 1.29399,-0.007 1.29398,0.007 1.29378,0.0268 0.59902,1.15251 0.55838,1.15535 0.51653,1.1574 0.47345,1.15863 0.42855,1.15924 0.38137,1.15904 0.33135,1.15802 0.27685,1.15575 0.2158,1.15293 0.14307,1.14799 0.0356,1.14005 -0.16046,1.99243 2.00241,0.1868 1.99693,0.23725 1.99038,0.28766 1.98244,0.33789 0.36075,-1.96607 0.32932,-1.09206 0.43547,-1.07187 0.50694,-1.05757 0.56656,-1.04491 0.61963,-1.03267 0.66843,-1.02081 0.71396,-1.00898 0.75724,-0.99651 0.79849,-0.98426 0.83829,-0.97142 0.87688,-0.95856 1.25661,0.30911 1.25234,0.32646 1.24765,0.34341 1.24274,0.36075 0.28011,1.26826 0.2403,1.26051 0.19947,1.25172 0.15741,1.24173 0.11397,1.23068 0.0685,1.21825 0.0203,1.20416 -0.0318,1.18822 -0.0897,1.16925 -0.15883,1.14596 -0.26072,1.11044 -0.67066,1.88301 1.88584,0.69864 1.86749,0.74601 1.84807,0.79298 1.82747,0.83951 0.85728,-1.80561 0.60085,-0.96958 0.69783,-0.9228 0.76336,-0.89035 0.81788,-0.8626 0.86587,-0.83708 0.90974,-0.81298 0.95079,-0.78971 0.98938,-0.76682 1.02592,-0.74397 1.06124,-0.72131 1.09492,-0.69885 1.13391,0.62373 1.12516,0.63942 1.11615,0.65476 1.10719,0.67007 -0.0576,1.29766 -0.0944,1.27969 -0.13127,1.2605 -0.16926,1.2403 -0.20845,1.21803 -0.24926,1.19457 -0.29197,1.16841 -0.33829,1.13943 -0.38934,1.10638 -0.45018,1.06572 -0.5392,1.00509 -1.13514,1.64535 1.64066,1.1627 1.61084,1.20417 1.57982,1.24417 1.54796,1.28377 1.29541,-1.52225 0.83135,-0.78091 0.91302,-0.71069 0.96774,-0.66251 1.01306,-0.62148 1.05307,-0.58452 1.08922,-0.54982 1.12268,-0.51673 1.15413,-0.48448 1.18375,-0.45303 1.21172,-0.42222 1.23843,-0.39158 0.93386,0.89587 0.92138,0.90873 0.90872,0.92138 0.89587,0.93386 -0.39157,1.23844 -0.42222,1.21171 -0.45303,1.18375 -0.48448,1.15413 -0.51674,1.12268 -0.54981,1.08921 -0.58453,1.05309 -0.62147,1.01304 -0.66251,0.96775 -0.71069,0.91302 -0.78091,0.83134 -1.52224,1.29542 1.28375,1.54795 1.24419,1.57983 1.20416,1.61084 1.1627,1.64066 1.64536,-1.13515 1.00508,-0.53919 1.06573,-0.45018 1.10637,-0.38935 1.13944,-0.33829 1.16841,-0.29196 1.19456,-0.24927 1.21804,-0.20845 1.2403,-0.16925 1.2605,-0.13127 1.27969,-0.0944 1.29766,-0.0576 0.67007,1.10719 0.65475,1.11615 0.63943,1.12516 0.62373,1.13391 -0.69884,1.09493 -0.72133,1.06124 -0.74397,1.02591 -0.76682,0.98938 -0.78972,0.95079 -0.81295,0.90974 -0.83709,0.86586 -0.86259,0.81789 -0.89036,0.76336 -0.92282,0.69783 -0.96957,0.60085 -1.80561,0.85728 0.83952,1.82747 0.79296,1.84807 0.74602,1.86749 0.69864,1.88584 1.883,-0.67067 1.11045,-0.26071 1.14596,-0.15883 1.16924,-0.0897 1.18823,-0.0318 1.20416,0.0203 1.21823,0.0683 1.2307,0.11397 1.24173,0.15741 1.25171,0.19947 1.26052,0.2403 1.26826,0.28011 0.36075,1.24274 0.34341,1.24765 0.32645,1.25234 0.30911,1.25662 -0.95855,0.87688 -0.97142,0.83829 -0.98426,0.79849 -0.99651,0.75724 -1.00898,0.71396 -1.02082,0.66843 -1.03266,0.61963 -1.04491,0.56655 -1.05756,0.50694 -1.07187,0.43547 -1.09206,0.32932 -1.96608,0.36075 0.33788,1.98244 0.28767,1.99038 0.23724,1.99694 0.18681,2.00241 z m -46.80644,17.3989 a 36.170636,36.170636 0 0 1 -42.35947,24.45626 l -11.17103,19.34877 a 57.873018,57.873018 0 0 0 75.87251,-43.80503 z m -61.1543,13.60508 a 36.170636,36.170636 0 0 1 0,-48.91251 l -11.17101,-19.34878 a 57.873018,57.873018 0 0 0 0,87.61005 z m 18.79483,-59.76371 a 36.170636,36.170636 0 0 1 42.35947,24.45625 l 22.34201,0 a 57.873018,57.873018 0 0 0 -75.87251,-43.80502 z m 7.85488,49.77569 a 14.46826,14.46826 0 0 0 0,-28.93652 14.46826,14.46826 0 1 0 0,28.93652"
     id="gear-A">
    <animateTransform
       xlink:href="#gear-A"
       attributeName="transform"
       type="rotate"
       begin="0s"
       dur="10000ms"
       fill="freeze"
       from="0,200,400"
       to="360,200,400"
       repeatCount="indefinite"
       calcMode="linear"
       id="animateTransform11" />
  </path>
  <path
     id="gear-B"
     d="m 340.59038,298.5423 1.02738,0.11852 1.03067,0.25264 1.03042,0.34622 1.02788,0.42591 1.02357,0.4987 1.01721,0.56678 1.00886,0.63139 0.99886,0.69354 0.98639,0.75414 0.9727,0.81261 0.95697,0.87003 -0.12603,1.26371 -0.15781,1.26037 -0.18682,1.25638 -0.21834,1.25109 -1.15563,0.58075 -1.15535,0.52118 -1.15281,0.46122 -1.14854,0.39949 -1.14145,0.33693 -1.13212,0.27246 -1.11997,0.20517 -1.10452,0.13391 -1.08557,0.0565 -1.06066,-0.0337 -1.02141,-0.16204 -5.75383,-1.83077 -0.82783,2.31392 -0.99035,2.2493 -1.14738,2.17314 -1.29901,2.08637 5.00921,3.37151 0.76166,0.69949 0.68515,0.8104 0.63003,0.8856 0.58148,0.94888 0.53488,1.00504 0.48991,1.05652 0.44501,1.1038 0.4003,1.14814 0.35494,1.18973 0.30915,1.22925 0.26272,1.26623 -0.84473,0.94836 -0.86772,0.92749 -0.89038,0.90591 -0.91201,0.884 -1.27617,-0.20945 -1.24106,-0.25739 -1.2038,-0.30471 -1.16388,-0.35169 -1.12154,-0.39835 -1.07598,-0.44506 -1.02667,-0.49222 -0.97248,-0.54097 -0.91126,-0.5924 -0.83828,-0.65062 -0.73114,-0.73175 -3.57864,-4.86316 -2.02994,1.38543 -2.12322,1.23772 -2.20579,1.08358 -2.27706,0.92437 2.07068,5.67195 0.20494,1.0138 0.0782,1.05801 -0.0111,1.08695 -0.0876,1.10942 -0.15887,1.12748 -0.22442,1.14265 -0.28886,1.15449 -0.351,1.16422 -0.4123,1.17134 -0.47233,1.17616 -0.53176,1.17863 -1.24075,0.27088 -1.24715,0.24021 -1.25279,0.20964 -1.25747,0.17895 -0.90934,-0.91941 -0.85287,-0.93777 -0.79454,-0.95393 -0.73513,-0.96869 -0.67304,-0.98161 -0.60898,-0.99255 -0.54123,-1.00173 -0.4688,-1.0093 -0.38899,-1.01486 -0.29581,-1.0191 -0.16127,-1.0216 -0.0368,-6.03789 -2.45651,-0.0724 -2.4452,-0.24673 -2.42152,-0.4197 -2.38554,-0.59065 -1.6586,5.80573 -0.42997,0.94063 -0.55888,0.90206 -0.6475,0.87293 -0.72286,0.84612 -0.79061,0.81936 -0.85339,0.7923 -0.91216,0.76454 -0.96847,0.7354 -1.02173,0.70523 -1.07359,0.67396 -1.12301,0.64112 -1.16308,-0.51042 -1.15033,-0.5387 -1.13666,-0.56664 -1.12225,-0.59447 -0.19534,-1.27818 -0.13874,-1.25985 -0.0822,-1.23905 -0.0251,-1.21573 0.0322,-1.18965 0.0909,-1.1609 0.15228,-1.1284 0.21381,-1.09214 0.2819,-1.04981 0.35977,-0.99802 0.46993,-0.92138 3.51923,-4.9065 -1.94473,-1.50248 -1.83329,-1.63668 -1.71233,-1.76294 -1.58276,-1.88015 -4.75426,3.7221 -0.90094,0.50826 -0.98232,0.40131 -1.03698,0.32563 -1.0821,0.25962 -1.1212,0.19811 -1.15603,0.13941 -1.18734,0.0822 -1.21558,0.0258 -1.2414,-0.0302 -1.26455,-0.0857 -1.28552,-0.14132 -0.64079,-1.09663 -0.61407,-1.11193 -0.58644,-1.12661 -0.55868,-1.14054 0.59345,-1.149 0.62823,-1.10089 0.66171,-1.0505 0.69421,-0.99828 0.72536,-0.94354 0.7559,-0.88592 0.78537,-0.82426 0.81517,-0.75762 0.84491,-0.68363 0.87778,-0.59638 0.92166,-0.46898 5.73119,-1.90078 -0.69032,-2.35878 -0.52094,-2.40158 -0.34923,-2.43275 -0.17529,-2.45127 -6.03418,0.21657 -1.02738,-0.11852 -1.03067,-0.25264 -1.03042,-0.34623 -1.02787,-0.42591 -1.02358,-0.4987 -1.01721,-0.56678 -1.00886,-0.63138 -0.99886,-0.69354 -0.98638,-0.75414 -0.9727,-0.8126 -0.95698,-0.87004 0.12603,-1.26372 0.15781,-1.26036 0.18682,-1.25639 0.21834,-1.25108 1.15564,-0.58075 1.15534,-0.52119 1.15281,-0.46121 1.14854,-0.39949 1.14145,-0.33693 1.13212,-0.27246 1.11997,-0.20518 1.10454,-0.13391 1.08555,-0.0564 1.06066,0.0337 1.02141,0.16203 5.75383,1.83077 0.82783,-2.31391 0.99035,-2.24931 1.14738,-2.17312 1.29901,-2.08639 -5.00921,-3.37151 -0.76166,-0.69948 -0.68515,-0.81041 -0.63002,-0.8856 -0.58148,-0.94888 -0.53489,-1.00504 -0.48991,-1.05652 -0.44501,-1.10379 -0.40029,-1.14816 -0.35494,-1.18972 -0.30915,-1.22926 -0.26272,-1.26621 0.84473,-0.94838 0.86772,-0.92749 0.89038,-0.90591 0.912,-0.88399 1.27618,0.20945 1.24106,0.25739 1.2038,0.30471 1.16388,0.3517 1.12153,0.39835 1.07599,0.44505 1.02667,0.49223 0.97248,0.54096 0.91126,0.59241 0.83828,0.65061 0.73114,0.73176 3.57864,4.86316 2.02994,-1.38542 2.12322,-1.23774 2.20579,-1.08358 2.27706,-0.92436 -2.07068,-5.67196 -0.20494,-1.0138 -0.0782,-1.05801 0.0111,-1.08695 0.0876,-1.10942 0.15667,-1.12777 0.22443,-1.14265 0.28884,-1.1545 0.351,-1.16423 0.41232,-1.17133 0.47232,-1.17616 0.53175,-1.17862 1.24075,-0.27089 1.24715,-0.24021 1.2528,-0.20965 1.25747,-0.17895 0.90934,0.91942 0.85289,0.93777 0.79453,0.95393 0.73511,0.96869 0.67304,0.98161 0.60899,0.99255 0.54124,1.00172 0.46879,1.00931 0.389,1.01486 0.2958,1.0191 0.16128,1.0216 0.0368,6.03787 2.45651,0.0724 2.4452,0.24673 2.42152,0.4197 2.38554,0.59064 1.6586,-5.80572 0.42997,-0.94063 0.55888,-0.90207 0.64749,-0.87294 0.72288,-0.84611 0.7906,-0.81937 0.8534,-0.79228 0.91215,-0.76455 0.96847,-0.73541 1.02174,-0.70521 1.07358,-0.67398 1.12302,-0.6411 1.16308,0.51041 1.15032,0.53871 1.13666,0.56663 1.12226,0.59447 0.19533,1.27818 0.13874,1.25984 0.0822,1.23906 0.0251,1.21572 -0.0322,1.18966 -0.0911,1.16091 -0.15008,1.12869 -0.21381,1.09214 -0.2819,1.04982 -0.35977,0.99801 -0.46994,0.9214 -3.51924,4.9065 1.94475,1.50247 1.83329,1.63667 1.71233,1.76296 1.58276,1.88014 4.75426,-3.7221 0.90094,-0.50827 0.98232,-0.4013 1.03698,-0.32564 1.0821,-0.2596 1.1212,-0.19812 1.15603,-0.13941 1.18734,-0.0822 1.21558,-0.0258 1.24139,0.0302 1.26456,0.0857 1.28552,0.14133 0.64079,1.09662 0.61407,1.11193 0.58644,1.12661 0.55868,1.14055 -0.59345,1.14899 -0.62823,1.1009 -0.66171,1.05049 -0.69421,0.99829 -0.72536,0.94353 -0.7559,0.88592 -0.78537,0.82426 -0.81517,0.75762 -0.84491,0.68363 -0.87779,0.59639 -0.92165,0.46897 -5.73119,1.90079 0.69032,2.35878 0.52094,2.40157 0.34923,2.43275 0.17529,2.45128 z m -42.93612,18.58707 a 17.289331,17.289331 0 0 0 4.69125,-34.25893 17.289331,17.289331 0 1 0 -4.69125,34.25893"
     style="fill:#ae9b71;stroke:#000000;stroke-width:1.46383011000000000;fill-opacity:1"
     inkscape:connector-curvature="0">
    <animateTransform
       id="animateTransform3812"
       calcMode="linear"
       repeatCount="indefinite"
       to="0,300,300"
       from="360,300,300"
       fill="freeze"
       dur="4167ms"
       begin="0s"
       type="rotate"
       attributeName="transform"
       xlink:href="#gear-B" />
  </path>
  <path
     id="gear-C"
     d="m 476.25825,179.19606 1.47388,-0.19526 1.51472,-0.0366 1.5416,0.073 1.56227,0.16618 1.57876,0.2501 1.59252,0.32838 1.60391,0.40345 1.61321,0.47505 1.6197,0.5448 1.62532,0.61276 1.62817,0.67953 0.31225,1.80576 0.27863,1.81118 0.24116,1.81656 0.20738,1.82079 -1.37185,1.10937 -1.38788,1.04451 -1.40154,0.97769 -1.41491,0.90893 -1.42609,0.8376 -1.43624,0.76234 -1.445,0.68336 -1.45275,0.59819 -1.45908,0.50294 -1.46412,0.38998 -1.46939,0.22645 -6.11486,0.13875 9e-4,3.25924 -0.14569,3.25634 -0.29166,3.2464 -0.43692,3.23027 6.04119,0.9559 1.42612,0.42035 1.39874,0.5825 1.37868,0.69364 1.35959,0.78711 1.34069,0.87067 1.3212,0.948 1.30103,1.0206 1.28043,1.09011 1.25844,1.15659 1.23515,1.22076 1.21098,1.28312 -0.44908,1.77666 -0.48318,1.76751 -0.51733,1.75811 -0.55129,1.74766 -1.70465,0.45565 -1.69245,0.3896 -1.67809,0.32325 -1.6622,0.25407 -1.64345,0.1851 -1.62232,0.11248 -1.5982,0.0364 -1.57029,-0.0444 -1.53731,-0.1341 -1.49664,-0.23927 -1.43408,-0.39149 -5.6426,-2.36046 -1.32509,2.97801 -1.45722,2.91574 -1.58709,2.84713 -1.71295,2.77313 5.13015,3.33046 1.13182,0.96398 1.04099,1.10115 0.9773,1.19435 0.92188,1.27202 0.87061,1.34081 0.82128,1.40327 0.77368,1.46199 0.72638,1.51653 0.67903,1.5682 0.63201,1.61761 0.58431,1.66487 -1.13276,1.44033 -1.16078,1.41823 -1.18757,1.39564 -1.21447,1.37243 -1.74247,-0.27727 -1.70454,-0.33236 -1.66465,-0.38744 -1.62202,-0.44321 -1.57659,-0.4994 -1.52786,-0.55701 -1.47464,-0.61684 -1.41642,-0.67931 -1.34983,-0.74776 -1.26979,-0.82703 -1.15116,-0.94114 -4.19452,-4.45121 -2.42176,2.18155 -2.51754,2.0708 -2.60762,1.95539 -2.69276,1.83673 3.33202,5.1291 0.64169,1.34082 0.50315,1.42944 0.40687,1.48876 0.32496,1.5368 0.24851,1.57927 0.17931,1.61624 0.11223,1.65005 0.0457,1.68081 -0.0174,1.70908 -0.0807,1.7347 -0.14315,1.75859 -1.62098,0.85504 -1.63698,0.82356 -1.65261,0.79207 -1.66749,0.7595 -1.47916,-0.96165 -1.42213,-0.99692 -1.36302,-1.03112 -1.30161,-1.06445 -1.23727,-1.09787 -1.16903,-1.13027 -1.09638,-1.16326 -1.01771,-1.19652 -0.92894,-1.23247 -0.82383,-1.27205 -0.66846,-1.32775 -2.02169,-5.77247 -3.09966,1.00797 -3.14205,0.86763 -3.17763,0.72593 -3.20681,0.58239 0.95762,6.04114 0.0408,1.48612 -0.12203,1.51042 -0.23354,1.52544 -0.32848,1.53618 -0.41361,1.54423 -0.49342,1.54929 -0.56868,1.55309 -0.64106,1.55454 -0.71116,1.55408 -0.77928,1.55205 -0.84604,1.54825 -1.82856,0.12183 -1.83044,0.0865 -1.83167,0.0514 -1.83261,0.0158 -0.96003,-1.48052 -0.89377,-1.48903 -0.82568,-1.49625 -0.75618,-1.50209 -0.68347,-1.50579 -0.60837,-1.50829 -0.52881,-1.50854 -0.44265,-1.50718 -0.34757,-1.50363 -0.2368,-1.4969 -0.0707,-1.48471 0.50134,-6.09609 -3.24181,-0.33976 -3.22316,-0.48507 -3.19832,-0.62935 -3.16657,-0.7724 -1.58247,5.90809 -0.56687,1.37453 -0.72575,1.33009 -0.83407,1.29851 -0.92478,1.26979 -1.00579,1.24226 -1.08098,1.21512 -1.15119,1.1873 -1.21791,1.1596 -1.28158,1.13052 -1.34348,1.10085 -1.40263,1.07018 -1.71981,-0.63233 -1.7077,-0.66559 -1.6942,-0.69808 -1.68044,-0.73097 -0.27522,-1.74258 -0.21077,-1.72414 -0.14597,-1.70286 -0.0795,-1.67957 -0.0122,-1.65387 0.0575,-1.62503 0.13086,-1.59319 0.20835,-1.55686 0.29425,-1.51502 0.39399,-1.46344 0.53955,-1.38524 2.93702,-5.3651 -2.82322,-1.62903 -2.7472,-1.75425 -2.6656,-1.87577 -2.57896,-1.99326 -3.84828,4.75384 -1.07705,1.02479 -1.20414,0.92012 -1.29005,0.8471 -1.36122,0.78373 -1.42429,0.7256 -1.48158,0.67045 -1.53478,0.61663 -1.58413,0.56351 -1.63074,0.5116 -1.6748,0.45936 -1.71666,0.40738 -1.31425,-1.27723 -1.28921,-1.30248 -1.26375,-1.32715 -1.23794,-1.35121 0.45789,-1.70404 0.50873,-1.6604 0.55914,-1.61508 0.61034,-1.56669 0.66157,-1.51576 0.71396,-1.46118 0.76731,-1.4023 0.82367,-1.33777 0.88481,-1.26438 0.95535,-1.17644 1.05619,-1.046 4.86532,-3.70655 -1.91655,-2.63643 -1.79605,-2.71993 -1.6722,-2.79784 -1.54504,-2.8702 -5.4496,2.77749 -1.40052,0.49834 -1.47451,0.35073 -1.52272,0.24992 -1.56261,0.16249 -1.59622,0.0836 -1.62621,0.01 -1.65257,-0.0609 -1.67673,-0.1294 -1.69768,-0.19581 -1.71703,-0.26181 -1.73389,-0.32624 -0.68093,-1.70136 -0.64804,-1.714 -0.61479,-1.72644 -0.58108,-1.73792 1.11126,-1.37037 1.13997,-1.31018 1.16803,-1.24766 1.19475,-1.18336 1.22071,-1.11543 1.24647,-1.04461 1.27131,-0.9689 1.29677,-0.88691 1.32265,-0.79508 1.35101,-0.68613 1.39046,-0.52622 5.95224,-1.40716 -0.67843,-3.18828 -0.53454,-3.21523 -0.38981,-3.23598 -0.24414,-3.25049 -6.10788,0.32083 -1.48229,-0.11459 -1.4893,-0.27917 -1.49271,-0.3917 -1.49364,-0.48707 -1.49224,-0.57295 -1.48963,-0.65256 -1.48484,-0.72778 -1.47896,-0.80026 -1.47136,-0.86947 -1.46201,-0.93737 -1.45136,-1.00319 0.0697,-1.83119 0.10528,-1.82959 0.14067,-1.82702 0.17578,-1.82409 1.57252,-0.80002 1.57443,-0.73342 1.5744,-0.66462 1.57293,-0.59503 1.56897,-0.52251 1.56354,-0.44722 1.55544,-0.36805 1.54538,-0.28283 1.53165,-0.18754 1.51367,-0.0774 1.48411,0.085 6.01026,1.13547 0.67691,-3.18858 0.81929,-3.15481 0.96003,-3.11483 1.09913,-3.06854 -5.71038,-2.19122 -1.30741,-0.70735 -1.24725,-0.86084 -1.20425,-0.96507 -1.16617,-1.05265 -1.1302,-1.1304 -1.09555,-1.20193 -1.06058,-1.26899 -1.02571,-1.33228 -0.99017,-1.39308 -0.95449,-1.45075 -0.91797,-1.5069 0.80871,-1.64447 0.84025,-1.62861 0.8716,-1.61208 0.90273,-1.5949 1.76196,-0.091 1.73643,-0.0294 1.70878,0.0331 1.67862,0.096 1.64619,0.16085 1.61023,0.22744 1.57074,0.29647 1.52652,0.36997 1.47602,0.45078 1.41405,0.54496 1.32149,0.68113 5.02832,3.48197 1.9155,-2.63725 2.03163,-2.54879 2.14409,-2.45507 2.25218,-2.35626 -4.32538,-4.32452 -0.90681,-1.17803 -0.78907,-1.2939 -0.70784,-1.37145 -0.63713,-1.43571 -0.57297,-1.49235 -0.51153,-1.54349 -0.45272,-1.59076 -0.39527,-1.63433 -0.33808,-1.67533 -0.28184,-1.71396 -0.22519,-1.74975 1.40758,-1.1734 1.43002,-1.14575 1.45209,-1.11833 1.47306,-1.08983 1.6467,0.63326 1.59854,0.67933 1.54748,0.72517 1.49452,0.77096 1.43827,0.81627 1.3787,0.8627 1.31414,0.9098 1.24414,0.95903 1.16512,1.01207 1.07006,1.07279 0.93004,1.16005 3.17778,5.22603 2.82229,-1.6305 2.8929,-1.50213 2.95727,-1.37062 3.01598,-1.23639 -2.19296,-5.71004 -0.34902,-1.44483 -0.19306,-1.50315 -0.0887,-1.54073 0.002,-1.57086 0.0839,-1.59633 0.16036,-1.61845 0.23313,-1.63714 0.30397,-1.65396 0.37232,-1.6679 0.43968,-1.68011 0.50568,-1.69051 1.76332,-0.49941 1.77239,-0.46505 1.78109,-0.43096 1.78932,-0.39638 1.24676,1.24839 1.18374,1.27078 1.11893,1.29185 1.05179,1.312 0.98189,1.3309 0.90862,1.34842 0.8306,1.36596 0.74662,1.38213 0.6525,1.39849 0.54124,1.41539 0.37795,1.43783 0.77727,6.06699 3.24131,-0.34153 3.25362,-0.19552 3.25925,-0.0496 3.25799,0.097 0.31945,-6.10793 0.26874,-1.46202 0.43348,-1.45221 0.54548,-1.44374 0.6408,-1.43414 0.72561,-1.42433 0.80461,-1.41305 0.87922,-1.40114 0.95032,-1.3871 1.01867,-1.3724 1.08496,-1.35611 1.14964,-1.33832 1.81364,0.26072 1.80855,0.29613 1.80235,0.33078 1.79588,0.36545 0.6312,1.64765 0.56452,1.64225 0.49667,1.6354 0.42723,1.62626 0.35561,1.61519 0.28176,1.60156 0.20494,1.58551 0.11965,1.56622 0.0275,1.54311 -0.0815,1.51321 -0.23937,1.46706 -1.7577,5.85837 3.10018,1.0067 3.05179,1.14449 2.99773,1.28056 2.93691,1.41375 2.77585,-5.44994 0.84056,-1.22654 0.98647,-1.15032 1.08555,-1.09669 1.16868,-1.04972 1.24211,-1.0061 1.30997,-0.96361 1.37293,-0.92202 1.4323,-0.88085 1.4889,-0.83929 1.54262,-0.79762 1.59451,-0.75541 1.55097,0.97618 1.53169,1.00603 1.51232,1.03521 1.49164,1.0643 -0.0933,1.76197 -0.15235,1.72999 -0.21136,1.6958 -0.27133,1.65948 -0.33201,1.6204 -0.39419,1.57744 -0.45909,1.53133 -0.52761,1.4797 -0.60259,1.42072 -0.6899,1.34917 -0.81561,1.24301 -3.98854,4.63701 2.42273,2.18055 2.3227,2.28692 2.21735,2.38926 2.108,2.48608 4.75275,-3.84991 1.26646,-0.77845 1.36925,-0.6499 1.43779,-0.56036 1.49465,-0.48354 1.54411,-0.41386 1.58862,-0.34766 1.62929,-0.28384 1.66668,-0.22289 1.70134,-0.16098 1.73376,-0.10131 1.764,-0.0413 1.01987,1.52256 0.99019,1.54208 0.96007,1.56075 0.92989,1.57907 -0.80195,1.57153 -0.84268,1.51846 -0.88302,1.46346 -0.92282,1.40579 -0.9621,1.34486 -1.00184,1.28084 -1.04226,1.21213 -1.08388,1.1372 -1.12843,1.05286 -1.17889,0.95185 -1.2507,0.80388 -5.52971,2.61383 1.3264,2.97761 1.19152,3.03387 1.05421,3.08443 0.91435,3.12835 z m -72.85258,42.49028 a 22.334984,22.334984 0 0 0 -6.33573,-44.21834 22.334984,22.334984 0 1 0 6.33573,44.21834"
     style="fill:#92650a;stroke:#000000;stroke-width:1.89102864000000000;fill-opacity:1"
     inkscape:connector-curvature="0">
    <animateTransform
       xlink:href="#gear-C"
       attributeName="transform"
       type="rotate"
       begin="0s"
       dur="6250ms"
       fill="freeze"
       from="0,400,200"
       to="360,400,200"
       repeatCount="indefinite"
       calcMode="linear"
       id="animateTransform3818" />
  </path>
</svg>
